<svg xmlns="http://www.w3.org/2000/svg" viewBox="0 0 5298 3186" role="img" aria-label="held.">
  <title>held.</title>
  <g transform="translate(360.00 2316.00) scale(1 -1)">
    <path d="M422 1423V137Q422 110 432.0 97.0Q442 84 461 78L506 68Q537 57 537 34Q537 0 491 0H134Q111 0 100.5 9.0Q90 18 90 33Q90 45 98.0 53.5Q106 62 124 68L171 78Q191 84 201.0 97.0Q211 110 211 137V1282Q211 1304 203.5 1314.5Q196 1325 179 1326L111 1329Q94 1332 86.5 1339.0Q79 1346 79 1358Q79 1371 87.5 1379.0Q96 1387 118 1395L285 1454Q316 1465 335.5 1470.0Q355 1475 371 1475Q396 1475 409.0 1461.0Q422 1447 422 1423ZM393 688 354 727 398 765Q516 870 601.0 915.0Q686 960 766 960Q886 960 952.0 880.0Q1018 800 1033 665L1094 141Q1098 112 1107.5 97.5Q1117 83 1138 77L1180 67Q1197 62 1205.5 53.5Q1214 45 1214 33Q1214 18 1203.5 9.0Q1193 0 1169 0H809Q763 0 763 34Q763 57 793 68L840 78Q862 84 873.5 98.5Q885 113 881 141L823 633Q811 732 771.0 782.0Q731 832 655 832Q608 832 554.0 805.5Q500 779 436 725Z" transform="translate(0 0)" fill="#3C332A"/>
    <path d="M961 584Q961 539 934.0 514.5Q907 490 855 490H216V554H696Q746 554 746 598Q746 732 688.0 806.5Q630 881 533 881Q457 881 399.5 838.0Q342 795 309.0 715.5Q276 636 276 528Q276 329 371.5 226.0Q467 123 621 123Q720 123 793.0 168.0Q866 213 896 287Q909 303 917.5 309.5Q926 316 936 316Q949 316 955.5 304.0Q962 292 961 276Q955 194 901.5 126.0Q848 58 759.0 17.5Q670 -23 556 -23Q416 -23 308.5 36.0Q201 95 141.5 201.5Q82 308 82 452Q82 598 140.0 712.5Q198 827 305.5 893.5Q413 960 561 960Q684 960 773.5 912.0Q863 864 912.0 779.5Q961 695 961 584Z" transform="translate(1233 0)" fill="#3C332A"/>
    <path d="M422 1423V137Q422 110 432.0 96.5Q442 83 462 78L507 68Q525 63 533.5 54.5Q542 46 542 33Q542 18 531.0 9.0Q520 0 497 0H134Q112 0 101.0 9.0Q90 18 90 33Q90 45 98.5 53.5Q107 62 124 68L171 78Q191 84 201.0 97.0Q211 110 211 137V1282Q211 1304 203.5 1314.5Q196 1325 179 1326L111 1329Q94 1332 87.0 1339.0Q80 1346 80 1358Q80 1371 88.0 1379.0Q96 1387 119 1395L285 1454Q317 1466 336.5 1470.5Q356 1475 370 1475Q396 1475 409.0 1461.0Q422 1447 422 1423Z" transform="translate(2274 0)" fill="#3C332A"/>
    <path d="M815 163 810 170V1282Q810 1304 802.5 1314.5Q795 1325 777 1326L710 1329Q692 1332 685.0 1339.0Q678 1346 678 1358Q678 1371 686.5 1379.0Q695 1387 717 1395L883 1454Q914 1465 934.0 1470.0Q954 1475 970 1475Q995 1475 1007.5 1461.0Q1020 1447 1020 1423V137Q1020 110 1030.0 96.5Q1040 83 1060 78L1105 68Q1123 63 1131.5 54.5Q1140 46 1140 33Q1140 18 1129.0 9.0Q1118 0 1095 0H915Q869 0 842.0 26.0Q815 52 815 100ZM82 447Q82 605 144.0 720.0Q206 835 311.5 897.5Q417 960 547 960Q666 960 759.0 901.5Q852 843 909 735L860 685Q809 775 736.5 822.0Q664 869 582 869Q503 869 439.5 825.5Q376 782 339.5 693.5Q303 605 303 471Q303 344 338.0 258.5Q373 173 434.5 130.0Q496 87 574 87Q655 87 727.0 134.0Q799 181 858 274L891 222Q814 106 712.5 41.5Q611 -23 491 -23Q373 -23 280.5 37.0Q188 97 135.0 203.0Q82 309 82 447Z" transform="translate(2881 0)" fill="#3C332A"/>
    <circle cx="4374.00" cy="204.00" r="204.00" fill="#386B4A"/>
  </g>
</svg>